<?xml version="1.0" encoding="UTF-8" standalone="no"?>
<!-- Created with Inkscape (http://www.inkscape.org/) -->

<svg
   version="1.1"
   id="svg1"
   width="539.27069"
   height="728.12787"
   viewBox="0 0 539.27069 728.12787"
   sodipodi:docname="109b.svg"
   inkscape:version="1.3.2 (091e20ef0f, 2023-11-25)"
   xmlns:inkscape="http://www.inkscape.org/namespaces/inkscape"
   xmlns:sodipodi="http://sodipodi.sourceforge.net/DTD/sodipodi-0.dtd"
   xmlns="http://www.w3.org/2000/svg"
   xmlns:svg="http://www.w3.org/2000/svg">
  <defs
     id="defs1" />
  <sodipodi:namedview
     id="namedview1"
     pagecolor="#ffffff"
     bordercolor="#000000"
     borderopacity="0.25"
     inkscape:showpageshadow="2"
     inkscape:pageopacity="0.0"
     inkscape:pagecheckerboard="0"
     inkscape:deskcolor="#d1d1d1"
     showgrid="false"
     inkscape:zoom="0.75539473"
     inkscape:cx="257.48128"
     inkscape:cy="371.32904"
     inkscape:window-width="1920"
     inkscape:window-height="1011"
     inkscape:window-x="0"
     inkscape:window-y="0"
     inkscape:window-maximized="1"
     inkscape:current-layer="layer1" />
  <g
     inkscape:groupmode="layer"
     id="layer1"
     inkscape:label="Layer 1"
     transform="translate(-123.724,-28.385667)"
     style="fill:#008080">
    <path
       id="path1"
       style="fill:#000000"
       d="M 224.76502 28.38762 C 221.62281 28.354906 219.86167 29.07761 216.85486 31.118089 C 214.2471 32.887755 212.43312 34.655333 212.82361 35.045823 C 213.2141 35.436313 212.1944 36.18074 210.55798 36.70012 C 208.92157 37.2195 206.17721 39.161868 204.45837 41.016526 C 202.73954 42.871186 201.33337 44.095479 201.33337 43.735276 C 201.33337 43.375073 198.93272 45.362835 195.99939 48.153245 C 193.06606 50.943655 190.66541 53.851476 190.66541 54.614183 C 190.66541 55.376889 190.01132 56.000901 189.21033 56.000901 C 188.40933 56.000901 186.27084 57.167009 184.45837 58.592698 C 182.64591 60.018387 180.39874 60.890757 179.46423 60.532151 C 177.72272 59.863872 161.96359 73.700555 162.84509 75.123948 C 163.11381 75.557857 162.34319 77.069322 161.13416 78.48137 C 159.92512 79.89342 158.56788 82.206215 158.11853 83.621995 C 157.66918 85.037775 156.25871 87.351966 154.98377 88.764573 C 152.6699 91.328284 146.66747 102.87977 145.68103 106.66692 C 144.98261 109.34828 145.15527 122.05249 145.97986 128.66692 C 146.34555 131.60024 146.88683 139.58772 147.18298 146.41692 C 147.47914 153.2461 148.01893 159.12982 148.3822 159.49309 C 149.74013 160.85102 147.60728 165.34059 145.51111 165.53606 C 144.3133 165.64776 142.73272 165.87935 141.99939 166.04973 C 141.26606 166.22011 139.96326 166.42802 139.10486 166.51262 C 138.24646 166.59721 137.11931 168.60458 136.599 170.97356 C 135.63941 175.34475 135.63732 270.32471 136.59705 281.33293 C 137.28044 289.17158 141.86617 297.68591 150.1615 306.52043 L 156.86267 313.65715 L 168.09705 313.8095 C 179.54407 313.96455 214.24591 312.70627 216.66736 312.04778 C 220.28184 311.06485 224.13089 312.30085 225.86462 315.0009 C 230.44036 322.12693 231.3269 344.15273 227.38025 352.66692 C 226.02054 355.60024 224.81199 358.30025 224.6947 358.66692 C 224.57741 359.03358 223.71281 362.03294 222.77283 365.33293 C 221.83286 368.63293 220.70208 371.92304 220.26111 372.64348 C 219.82013 373.36392 219.38521 374.86456 219.29431 375.97746 C 219.13563 377.92076 216.64005 386.49953 215.02087 390.66692 C 214.59349 391.76692 214.3309 393.09547 214.43884 393.62004 C 214.54679 394.1446 213.94828 396.24591 213.10877 398.28801 C 212.26925 400.33012 211.33765 403.48468 211.03845 405.29973 C 210.73926 407.11479 209.93894 409.2697 209.25916 410.08879 C 208.57938 410.90787 208.33537 411.88961 208.71619 412.27043 C 209.09701 412.65126 208.69153 414.69699 207.8158 416.81535 C 206.94006 418.93372 206.09781 421.11692 205.9447 421.66692 C 205.79158 422.21692 205.52331 423.11692 205.34705 423.66692 C 205.17079 424.21692 204.91265 425.26757 204.77478 426.0009 C 204.00173 430.11272 202.12884 435.5496 200.98572 437.0009 C 200.26372 437.91757 200.03178 438.66692 200.47009 438.66692 C 200.90839 438.66692 200.62773 440.31627 199.84509 442.33293 C 199.06245 444.3496 198.15588 447.4996 197.83142 449.33293 C 197.15239 453.16977 192.02678 469.34713 190.86072 471.33293 C 190.43011 472.06626 189.92627 473.63395 189.74158 474.81731 C 189.55688 476.00067 188.69729 478.70067 187.83142 480.81731 C 185.48791 486.54603 185.34092 487.72595 185.51697 499.33293 C 186.02437 532.78442 185.75447 538.66692 183.71619 538.66692 C 183.13891 538.66692 182.66736 543.03974 182.66736 548.38567 C 182.66736 557.75577 179.80834 572.3422 177.40173 575.25676 C 176.76152 576.03211 175.83769 579.06757 175.34705 582.0009 C 174.85642 584.93424 173.66951 589.43424 172.71033 592.0009 C 171.75114 594.56757 171.17095 599.66627 171.42127 603.33293 C 172.39691 617.6247 173.67369 630.98995 175.37048 644.66692 C 175.82537 648.33358 176.36666 652.99652 176.57166 655.02825 C 177.02775 659.54826 178.06167 660.66692 181.7865 660.66692 C 184.52052 660.66692 184.65993 661.24025 184.54627 672.0009 C 184.29943 695.36982 183.84823 698.31227 179.93494 702.06145 C 177.94885 703.96425 175.50128 705.68739 174.49548 705.88957 C 173.48969 706.09174 170.97786 706.94981 168.91345 707.79582 C 166.84905 708.64184 163.73389 709.33293 161.99158 709.33293 C 160.24927 709.33293 158.42882 709.97344 157.9447 710.75676 C 157.46058 711.54012 156.29718 711.8876 155.36072 711.52825 C 154.42426 711.1689 152.9842 711.54734 152.1615 712.37004 C 151.33881 713.19273 150.66736 713.47681 150.66736 713.0009 C 150.66736 712.52498 148.53974 713.02437 145.9408 714.11028 C 143.34185 715.19619 140.68297 715.75638 140.03259 715.35442 C 139.38221 714.95246 138.52256 715.15502 138.12048 715.80559 C 137.7184 716.45617 135.67146 717.33288 133.57166 717.75285 C 130.48558 718.37006 129.29658 719.74442 127.36853 724.92473 C 126.05665 728.44949 124.53371 731.83261 123.98377 732.44231 C 122.96327 733.57371 125.18281 742.79219 126.76697 744.0009 C 127.24754 744.36757 128.02604 745.90404 128.49744 747.41692 C 129.85562 751.77573 144.22018 754.95178 161.99939 754.82317 C 174.21452 754.73481 187.61391 753.28328 191.99939 751.57317 C 193.09939 751.14423 195.91297 750.52261 198.25134 750.19231 C 200.58973 749.86201 203.13382 749.20327 203.90369 748.72746 C 207.63489 746.42143 217.26508 746.47499 221.24353 748.82512 C 223.49279 750.15379 225.33337 751.65941 225.33337 752.17082 C 225.33337 753.46255 240.79429 752.47938 247.65369 750.7509 C 250.76373 749.9672 253.76504 749.4336 254.32166 749.56535 C 254.87828 749.69711 257.94347 749.05846 261.13416 748.14739 C 264.32484 747.23661 267.27057 746.82482 267.67908 747.23332 C 268.08758 747.64182 269.07553 747.43916 269.87634 746.78215 C 270.67715 746.12513 273.43272 745.41133 275.99939 745.19621 C 278.56606 744.9811 281.40848 744.25706 282.3158 743.58684 C 283.22313 742.91663 284.87443 742.71583 285.98377 743.14153 C 287.0931 743.56722 287.99939 743.27014 287.99939 742.48137 C 287.99939 741.69259 288.91367 741.39845 290.03064 741.82707 C 291.7077 742.47062 291.80641 742.1295 290.59509 739.86614 C 289.78832 738.35868 289.48548 736.19513 289.92127 735.0595 C 290.35706 733.92385 290.03445 732.17831 289.20642 731.18059 C 288.37842 730.18288 288.0417 728.47934 288.45837 727.39348 C 288.87505 726.30763 288.68137 725.08713 288.02673 724.68254 C 287.3721 724.27795 286.79217 722.90846 286.73767 721.63957 C 286.48504 715.76159 286.02163 713.33293 285.15369 713.33293 C 284.40888 713.33293 282.62133 707.95284 282.05408 704.0009 C 282.00145 703.63423 281.48378 702.58359 280.90173 701.66692 C 280.31968 700.75026 280.21413 699.40026 280.66736 698.66692 C 281.12058 697.93359 280.81285 697.33293 279.98377 697.33293 C 278.35955 697.33293 278.55693 690.94888 280.25525 688.5634 C 280.81798 687.77298 280.72391 685.19184 280.04627 682.82903 C 279.19186 679.84987 279.44535 675.1825 280.87048 667.60051 C 282.00078 661.5871 282.90706 655.64462 282.88416 654.39543 C 282.82121 650.95422 286.05134 650.47595 313.76502 649.81926 C 345.94195 649.05681 352.74815 648.47656 373.33337 644.73918 C 375.16671 644.40632 378.61686 643.81108 381.00134 643.41692 C 383.38583 643.02276 387.28713 642.34145 389.66931 641.90325 C 392.05149 641.46504 395.50005 640.91747 397.33337 640.68645 C 399.16671 640.45542 402.25479 639.8565 404.1947 639.35637 C 407.38261 638.53449 407.88898 638.93942 409.47009 643.55754 C 410.43223 646.36778 411.27118 648.96626 411.33337 649.33293 C 411.39558 649.6996 412.77862 652.94491 414.40759 656.54387 C 417.02663 662.3302 418.20292 666.35636 419.31189 673.33293 C 419.48674 674.43293 419.96672 676.23293 420.3783 677.33293 C 423.31974 685.19436 425.30672 693.30338 425.05017 696.40325 C 424.74595 700.07905 419.24292 706.53741 415.82947 707.22356 C 414.82368 707.42574 412.31185 708.28184 410.24744 709.12785 C 408.18304 709.97386 405.06788 710.66692 403.32556 710.66692 C 401.58325 710.66692 399.76085 711.30742 399.27673 712.09075 C 398.7926 712.8741 397.63117 713.22158 396.6947 712.86223 C 395.75824 712.50287 394.31817 712.88134 393.49548 713.70403 C 392.67279 714.52672 391.99939 714.8108 391.99939 714.33489 C 391.99939 713.85898 389.87373 714.35835 387.27478 715.44426 C 384.67584 716.53017 382.01696 717.08841 381.36658 716.68645 C 380.7162 716.28449 379.8546 716.48899 379.45252 717.13957 C 379.05044 717.79014 377.0035 718.66493 374.90369 719.08489 C 371.81761 719.70211 370.62862 721.07841 368.70056 726.25871 C 367.38868 729.78346 365.86574 733.16463 365.3158 733.77434 C 364.29531 734.90573 366.51678 744.12422 368.10095 745.33293 C 368.58151 745.6996 369.36002 747.23803 369.83142 748.7509 C 370.68773 751.49905 377.73797 754.06799 387.97986 755.36418 C 390.39065 755.66928 392.53971 756.09591 392.75525 756.31145 C 393.31863 756.87484 413.02343 756.16511 419.33337 755.35442 C 428.77652 754.14118 431.29371 753.70056 433.33337 752.9052 C 434.43337 752.47626 437.24695 751.85659 439.58533 751.52629 C 441.92372 751.19598 444.46585 750.53529 445.23572 750.0595 C 448.96693 747.75345 458.59906 747.80897 462.57752 750.1591 C 464.82677 751.48777 466.66736 752.99341 466.66736 753.50481 C 466.66736 754.79655 482.12829 753.81141 488.98767 752.08293 C 492.09772 751.29923 495.09707 750.76563 495.65369 750.89739 C 496.21031 751.02914 499.27745 750.39245 502.46814 749.48137 C 505.65883 748.57059 508.60261 748.15881 509.01111 748.56731 C 509.41961 748.97582 510.40953 748.77316 511.21033 748.11614 C 512.01114 747.45912 514.76672 746.74531 517.33338 746.5302 C 519.90004 746.31508 522.74245 745.59103 523.64978 744.92082 C 524.5571 744.2506 526.20646 744.04982 527.3158 744.47551 C 528.42514 744.9012 529.33338 744.60413 529.33338 743.81535 C 529.33338 743.02658 530.24766 742.73244 531.36463 743.16106 C 533.04168 743.80461 533.1404 743.46349 531.92908 741.20012 C 531.12231 739.69265 530.81751 737.52913 531.2533 736.39348 C 531.68908 735.25783 531.36844 733.51228 530.54041 732.51457 C 529.71241 731.51685 529.37568 729.81137 529.79236 728.72551 C 530.20904 727.63966 530.01537 726.42113 529.36072 726.01653 C 528.70608 725.61194 528.1242 724.24246 528.0697 722.97356 C 527.81707 717.09557 527.35561 714.66692 526.48767 714.66692 C 525.66442 714.66692 523.8209 708.53859 523.7865 705.6884 C 523.77973 705.12619 523.17294 703.94209 522.43884 703.05754 C 521.70473 702.173 521.49115 700.823 521.96423 700.05754 C 522.43731 699.29209 522.1449 698.66692 521.3158 698.66692 C 519.62198 698.66692 519.92221 692.22325 521.73181 689.72551 C 522.37266 688.84097 522.52716 687.51872 522.07556 686.78801 C 521.62395 686.05729 520.92804 682.88082 520.53064 679.72942 C 519.59713 672.32666 519.2195 670.4349 518.1908 668.0009 C 517.7259 666.9009 517.15544 664.17352 516.92127 661.94035 C 516.68711 659.7072 516.04737 657.15588 515.50134 656.27239 C 514.9553 655.38889 514.85483 654.10739 515.27673 653.42473 C 515.69864 652.74207 515.39234 651.78148 514.59705 651.28996 C 513.8018 650.79845 513.46632 649.57745 513.85095 648.57512 C 514.23558 647.57278 513.93624 646.37148 513.18494 645.90715 C 512.43364 645.44282 512.14091 644.22399 512.53455 643.19817 C 512.9282 642.17235 512.59796 641.33293 511.80212 641.33293 C 511.00628 641.33293 510.66859 640.13359 511.05212 638.66692 C 511.43566 637.20026 511.13632 636.0009 510.38611 636.0009 C 509.6359 636.0009 509.33674 634.80081 509.72009 633.33489 C 510.10344 631.86895 509.83106 630.30771 509.11658 629.86614 C 508.4021 629.42456 508.14091 628.22399 508.53455 627.19817 C 508.9282 626.17235 508.59796 625.33293 507.80212 625.33293 C 507.00623 625.33293 506.66878 624.13481 507.05212 622.66887 C 507.43547 621.20293 507.16504 619.64169 506.45056 619.20012 C 505.73607 618.75854 505.44472 617.63072 505.80408 616.69426 C 506.16343 615.7578 505.96925 614.46839 505.37048 613.82903 C 503.71031 612.05628 502.54324 604.84053 503.66931 603.3095 C 504.51473 602.16005 509.76219 600.34612 518.6947 598.11223 C 519.80986 597.83334 522.95987 596.28442 525.6947 594.67082 C 528.42954 593.05723 530.66736 592.16927 530.66736 592.69817 C 530.66736 593.22706 531.53865 592.93656 532.60486 592.05168 C 535.85882 589.35115 553.05086 581.49573 553.88416 582.32903 C 554.31409 582.75896 554.66736 582.45157 554.66736 581.64543 C 554.66736 580.23818 558.04643 578.59151 560.51697 578.79582 C 561.16831 578.84968 562.06831 578.32178 562.51697 577.622 C 563.53971 576.02676 577.64487 568.70603 578.99939 569.06731 C 579.54939 569.214 579.99939 568.73424 579.99939 568.0009 C 579.99939 567.26757 580.44939 566.73832 580.99939 566.82512 C 581.54939 566.91196 582.30069 566.86455 582.66736 566.7216 C 584.02824 566.19105 588.78649 565.17029 592.59119 564.59075 C 594.74923 564.26203 596.93083 563.31628 597.4408 562.49114 C 597.95077 561.66595 598.92322 561.33398 599.60095 561.75285 C 601.09314 562.67507 604.5779 560.37336 616.89197 550.33293 C 622.06348 546.11627 627.01687 542.66692 627.89978 542.66692 C 629.40637 542.66692 636.64843 535.03332 636.68103 533.41106 C 636.71189 531.87549 648.37138 517.33293 649.57166 517.33293 C 650.26016 517.33293 650.44996 516.72965 649.99353 515.99114 C 649.5371 515.25262 650.09931 514.28884 651.24158 513.85051 C 652.38384 513.41218 652.98254 512.51218 652.57361 511.85051 C 652.16467 511.18884 652.76532 510.28884 653.90759 509.85051 C 655.04986 509.41218 655.65051 508.51218 655.24158 507.85051 C 654.83264 507.18884 655.43134 506.28884 656.57361 505.85051 C 657.71588 505.41218 658.37554 504.60689 658.03845 504.06145 C 657.70135 503.51602 658.55934 501.85314 659.9447 500.36614 C 661.76388 498.41348 662.05969 497.25846 661.00916 496.20793 C 659.95863 495.1574 660.10517 494.54309 661.53845 493.99309 C 663.72288 493.15484 663.37354 485.9732 661.0033 483.0009 C 660.07667 481.8389 660.20407 481.33293 661.42517 481.33293 C 662.49159 481.33293 662.16317 480.56784 660.58728 479.3759 C 659.1638 478.29922 658.49126 477.3992 659.09119 477.3759 C 659.69113 477.35258 658.89991 475.53293 657.33338 473.33293 C 655.76685 471.13293 654.97563 469.3096 655.57556 469.2802 C 656.1755 469.25084 655.01606 468.33129 652.99939 467.23723 C 650.98272 466.14317 649.33338 464.26806 649.33338 463.06926 C 649.33337 461.87046 648.95099 461.27195 648.48377 461.73918 C 648.01655 462.2064 646.0659 461.50064 644.14978 460.17082 C 642.23367 458.841 638.71671 456.91124 636.33338 455.88371 C 633.95005 454.85618 631.99939 453.64493 631.99939 453.19231 C 631.99939 452.73968 630.49923 452.65631 628.66541 453.00676 C 626.6388 453.39417 625.33338 453.03006 625.33338 452.07707 C 625.33338 451.21497 624.78337 450.84811 624.11267 451.26262 C 623.44197 451.67714 622.64802 451.27878 622.34705 450.3759 C 622.00856 449.36042 619.54945 448.8131 615.89978 448.94231 C 612.65477 449.0572 611.05005 448.8478 612.33338 448.47746 C 616.3258 447.32534 614.90237 446.01703 609.23377 445.62785 C 606.18548 445.41857 602.61345 444.14554 601.08923 442.72551 C 599.59607 441.33441 597.56145 440.50705 596.5697 440.88762 C 595.57795 441.26819 593.28761 439.9847 591.47986 438.0341 C 589.67211 436.08351 587.70043 434.45532 587.09705 434.41692 C 584.19641 434.23244 579.85098 431.83008 579.15955 430.02825 C 578.73484 428.92146 577.94249 428.29049 577.39978 428.6259 C 576.85707 428.96131 574.22085 427.22562 571.54041 424.77043 C 568.85996 422.31524 566.66541 420.64434 566.66541 421.05754 C 566.66541 421.47074 563.36671 418.37434 559.33338 414.17668 C 555.30005 409.97903 551.99939 407.14449 551.99939 407.87785 C 551.99939 408.61121 550.52595 407.74035 548.72595 405.94035 C 546.92595 404.14036 544.67595 402.65663 543.72595 402.64543 C 542.36196 402.62931 542.37617 402.38671 543.79236 401.48918 C 545.10909 400.65468 544.62409 400.11086 541.96814 399.44426 C 539.9786 398.94491 538.67225 398.21671 539.06384 397.82512 C 539.45542 397.43354 537.27514 394.68643 534.22009 391.7216 C 531.16505 388.75678 528.66541 385.71836 528.66541 384.9677 C 528.66541 384.21705 527.46606 383.13381 525.99939 382.56145 C 524.53272 381.98909 524.05329 381.47818 524.93494 381.42668 C 525.8166 381.37513 525.06724 379.74601 523.26892 377.80559 C 521.4706 375.86518 519.99939 373.46452 519.99939 372.4716 C 519.99939 371.47869 519.09939 370.66692 517.99939 370.66692 C 516.21007 370.66692 515.42461 369.10586 516.33338 367.35832 C 516.51671 367.00577 515.3154 365.77183 513.66541 364.61614 C 512.01541 363.46043 510.66541 361.40004 510.66541 360.03606 C 510.66541 358.67209 509.95674 357.31937 509.08923 357.0302 C 507.17751 356.39296 506.61608 342.7248 508.40369 340.34075 C 509.08809 339.42799 509.33317 337.47733 508.94861 336.00676 C 508.54646 334.46893 508.90362 333.33281 509.79041 333.33293 C 510.81049 333.33308 511.33337 330.17578 511.33337 324.0009 C 511.33338 318.8676 510.84658 314.66707 510.2533 314.66692 C 509.66002 314.66678 509.52324 314.10322 509.94861 313.41496 C 510.37398 312.7267 509.65947 311.54606 508.36072 310.78996 C 506.90124 309.94028 506.66961 309.39905 507.75525 309.37395 C 508.9086 309.34732 509.21733 308.40374 508.65369 306.62785 C 508.18156 305.14032 507.58705 302.29161 507.33142 300.29582 C 507.07579 298.30003 506.23636 295.01756 505.46619 293.0009 C 504.69601 290.98423 504.47101 289.33293 504.96619 289.33293 C 505.46138 289.33293 505.19317 288.65954 504.37048 287.83684 C 503.54781 287.01415 503.19165 285.51545 503.57947 284.50481 C 503.96729 283.49417 503.74974 282.66692 503.09509 282.66692 C 502.44044 282.66692 501.85993 281.61626 501.80603 280.33293 C 501.64206 276.42838 500.29728 271.04884 498.77478 268.20403 C 497.98122 266.72125 497.33337 263.69622 497.33337 261.48137 C 497.33338 259.26651 495.78794 253.37683 493.89978 248.39348 C 492.01162 243.41012 489.64072 235.73293 488.63025 231.33293 C 487.61979 226.93294 485.31553 219.03045 483.51111 213.77239 C 481.70669 208.51433 480.57803 203.86562 481.0033 203.44035 C 481.42857 203.01508 481.04276 202.66692 480.14392 202.66692 C 479.24512 202.66692 478.88016 202.06626 479.33337 201.33293 C 479.7866 200.59959 479.58712 200.0009 478.89002 200.0009 C 477.63417 200.0009 475.3294 193.6823 475.81384 191.56731 C 475.9523 190.9628 475.55911 190.78088 474.9408 191.16301 C 474.3225 191.54515 473.02603 189.63958 472.05994 186.92864 C 471.09386 184.21768 469.18487 180.40642 467.81775 178.45989 C 466.45063 176.51336 465.33337 173.964 465.33337 172.79387 C 465.33337 171.62374 464.73272 170.66692 463.99939 170.66692 C 463.26606 170.66692 462.66541 169.9878 462.66541 169.15715 C 462.66541 168.3265 461.61195 166.6752 460.32361 165.48918 C 459.03527 164.30316 457.16978 161.75207 456.17908 159.81926 C 455.18838 157.88645 452.33534 153.9871 449.83728 151.15325 C 447.33921 148.3194 443.35276 143.47269 440.97986 140.38371 C 438.60697 137.29474 430.62888 128.43298 423.24939 120.69035 C 415.8699 112.94773 410.16859 106.228 410.58142 105.75871 C 410.99425 105.28946 410.63049 105.30673 409.77283 105.79778 C 408.87968 106.30915 406.38705 104.54949 403.93884 101.67864 C 401.5879 98.921822 400.08646 97.566918 400.60095 98.666917 C 401.11543 99.766916 400.22918 99.175633 398.6322 97.352464 C 397.03523 95.529295 395.03888 94.02618 394.19666 94.01262 C 393.35443 93.99906 391.3154 93.219268 389.66541 92.280198 C 388.01541 91.341129 386.66541 90.901327 386.66541 91.303636 C 386.66541 91.705945 384.47449 91.119938 381.79627 90.000901 C 379.11804 88.881865 375.24934 87.670783 373.19861 87.309495 C 371.14787 86.948207 367.78813 85.962266 365.73377 85.118089 C 363.6794 84.273913 360.49873 83.340929 358.66541 83.04387 C 356.83207 82.746812 355.17909 82.078911 354.99158 81.561448 C 354.80408 81.043987 352.55408 80.720221 349.99158 80.840745 C 347.42909 80.961269 345.33337 80.590958 345.33337 80.018479 C 345.33338 78.586751 340.00424 77.011085 336.18298 77.313401 C 334.4506 77.450458 333.37362 77.011227 333.79041 76.336839 C 334.63678 74.967396 333.12271 74.737041 322.99939 74.688401 C 318.59056 74.667217 315.99939 74.080178 315.99939 73.104417 C 315.99939 72.252337 315.61701 71.937976 315.14978 72.405198 C 314.68256 72.87242 312.66126 72.087793 310.65759 70.661058 C 308.65393 69.234323 305.43632 67.466769 303.5072 66.733323 C 301.5781 65.999877 299.99939 64.783635 299.99939 64.032151 C 299.99939 63.280668 299.54939 62.73828 298.99939 62.82512 C 296.65734 63.194917 295.9079 62.559411 296.86267 61.014573 C 297.42413 60.106104 297.94919 55.751048 298.02869 51.336839 C 298.10816 46.922629 298.80441 42.181201 299.57752 40.799729 C 302.07925 36.32937 300.21185 33.343563 294.84314 33.23137 C 285.37652 33.033539 277.93678 33.292643 273.33337 33.977464 C 270.76672 34.359291 266.74318 34.954233 264.39197 35.301683 C 262.04075 35.649132 259.74767 35.339464 259.29822 34.612229 C 258.84876 33.884993 258.01676 33.577501 257.44861 33.928636 C 256.88046 34.27977 254.07289 33.884277 251.20837 33.049729 C 248.34387 32.215183 245.39874 31.427943 244.66541 31.301683 C 243.93207 31.175421 243.03207 30.931942 242.66541 30.760667 C 241.69483 30.307301 236.30288 29.506958 228.46423 28.651292 C 227.01239 28.492808 225.81242 28.398525 224.76502 28.38762 z M 210.92127 160.0009 C 212.63664 159.99896 213.85653 163.10868 215.36658 171.33293 C 218.35586 187.61362 223.85742 193.72072 231.01697 188.70598 C 234.6818 186.13908 235.99939 186.12839 235.99939 188.66692 C 235.99939 189.76692 236.63489 190.66692 237.4115 190.66692 C 238.18845 190.66692 238.53557 191.13353 238.18298 191.70403 C 237.83039 192.27453 238.65328 194.21445 240.01111 196.01457 C 242.4695 199.27373 242.45924 199.31177 237.61853 205.3095 C 234.94487 208.6222 232.43584 211.63423 232.04431 212.0009 C 231.65278 212.36756 230.0199 215.36692 228.41541 218.66692 C 226.8109 221.96691 225.46091 223.97642 225.41541 223.13176 C 225.36863 222.2633 221.85677 221.19215 217.33142 220.66692 C 212.93011 220.1561 209.02953 219.25339 208.66345 218.66106 C 208.29737 218.06873 206.86499 217.87943 205.48181 218.24114 C 204.09864 218.60284 202.57568 218.26558 202.09705 217.49114 C 201.61841 216.71669 200.92023 205.49382 200.54627 192.55168 L 199.86658 169.02043 L 204.93298 164.51067 C 207.71948 162.03061 210.41455 160.00147 210.92127 160.0009 z " />
    <path
       id="path2"
       style="fill:#6c5353"
       d="M 475.92908 591.5927 C 475.78203 591.62053 475.64529 591.68662 475.51697 591.78801 C 473.59985 593.30277 463.68723 596.64432 462.27283 596.25285 C 461.68921 596.09132 458.68791 597.40688 455.60486 599.17668 C 450.52175 602.09461 441.63546 605.1379 419.66736 611.48332 C 415.45069 612.7013 411.99939 614.42273 411.99939 615.30754 C 411.99939 616.19236 413.28134 620.46045 414.84705 624.79192 C 416.41275 629.12338 417.84505 635.87141 418.03064 639.78801 C 418.25335 644.4879 419.67881 649.47397 422.22205 654.45403 C 425.78133 661.42366 426.63163 662.18367 433.37048 664.4052 C 440.38368 666.71717 450.19265 668.84357 459.95252 670.16692 C 467.66178 671.21222 467.36053 672.83489 459.10486 674.7509 C 456.29676 675.40261 451.57095 675.9502 448.60095 675.9677 C 442.85043 676.0016 439.99939 677.80913 439.99939 681.42082 C 439.99939 682.64192 438.76039 685.21562 437.24548 687.14153 L 434.49158 690.64348 L 438.24548 693.9677 C 442.46807 697.70683 450.491 700.36947 455.65955 699.747 C 459.75242 699.25407 461.17862 701.96791 457.74744 703.71965 C 456.41954 704.39758 451.43401 705.69567 446.66736 706.60637 C 441.90069 707.51707 437.70004 708.65407 437.33337 709.13176 C 435.75942 711.18228 420.82369 716.65777 405.99939 720.62004 C 391.33926 724.53844 383.19244 727.65654 379.10095 730.91301 C 377.34995 732.30666 380.72414 741.29402 384.36462 744.9345 C 389.43437 750.00424 400.67565 749.88985 424.66736 744.52239 C 456.73474 737.34821 458.91296 737.0146 462.20837 738.77825 C 463.90249 739.68491 465.66181 741.59928 466.11658 743.03215 C 466.81089 745.21971 467.72166 745.49914 471.80408 744.77434 C 474.47812 744.29958 482.06737 743.01048 488.66736 741.9091 C 495.26735 740.80772 502.16606 739.61057 503.99939 739.24895 C 505.83272 738.88733 510.24678 738.21791 513.80798 737.76067 C 521.24346 736.80601 520.9906 739.37087 516.02869 715.33293 C 512.04837 696.05037 512.7961 697.36248 506.96423 699.44426 C 500.99506 701.57506 496.44814 701.80354 495.35095 700.02825 C 494.37774 698.45357 499.89162 690.66692 501.97986 690.66692 C 502.79312 690.66692 505.66276 688.41026 508.35681 685.65129 L 513.25525 680.63371 L 511.80603 671.31731 C 511.00882 666.19294 507.12782 651.50024 503.18103 638.66692 C 499.23425 625.8336 496.00256 613.98293 496.00134 612.33293 C 495.99934 609.97108 495.24289 609.33293 492.43884 609.33293 C 488.91091 609.33293 483.99939 606.05444 483.99939 603.69817 C 483.99939 603.02574 482.43259 599.8009 480.51697 596.53215 C 478.4547 593.01316 476.95844 591.3979 475.92908 591.5927 z M 255.99548 617.07121 L 247.29627 625.46965 C 239.26429 633.22486 216.71031 648.0009 212.90369 648.0009 C 212.00009 648.0009 209.7774 649.04827 207.96423 650.32903 C 206.15107 651.6098 202.26671 653.95779 199.33337 655.54778 C 193.19726 658.87379 193.05457 659.95101 196.96814 673.38176 C 199.40704 681.75168 199.41321 682.26577 197.14978 686.31731 L 194.79431 690.53606 L 198.73572 693.85442 C 202.4119 696.94771 211.71134 699.43824 215.85291 698.4384 C 218.66421 697.7597 219.12453 701.00158 216.41345 702.38567 C 215.08556 703.06361 210.10004 704.36365 205.33337 705.27434 C 200.56672 706.18504 196.36606 707.32009 195.99939 707.79778 C 194.42543 709.84828 179.49164 715.32573 164.66736 719.28801 C 150.00721 723.20642 141.85845 726.32256 137.76697 729.57903 C 136.01596 730.97267 139.39016 739.96199 143.03064 743.60246 C 148.10039 748.67221 159.34168 748.55588 183.33337 743.1884 C 215.40076 736.01423 217.58093 735.6806 220.87634 737.44426 C 222.57046 738.35092 224.32781 740.26529 224.78259 741.69817 C 225.47689 743.88571 226.38963 744.16516 230.47205 743.44035 C 233.14608 742.9656 240.73338 741.67651 247.33337 740.57512 C 253.93337 739.47374 260.83402 738.27658 262.66736 737.91496 C 264.50069 737.55334 268.91279 736.88391 272.474 736.42668 C 279.90946 735.47202 279.65663 738.03884 274.6947 714.0009 C 270.7144 694.71834 271.4621 696.0285 265.63025 698.11028 C 259.66107 700.24108 255.11417 700.4715 254.01697 698.69621 C 253.0382 697.11254 258.5636 689.33293 260.66736 689.33293 C 261.49225 689.33293 263.80983 687.61819 265.81775 685.52239 C 269.44595 681.73536 269.47284 681.574 270.04822 659.19035 C 270.36665 646.80284 270.96583 632.6793 271.38025 627.80559 L 272.13416 618.94426 L 264.06384 618.00676 L 255.99548 617.07121 z " />
    <path
       id="path3"
       style="fill:#0000ff"
       d="M 377.93884 378.66692 C 376.95915 378.66692 375.76762 379.29906 375.29041 380.07121 C 373.26357 383.35071 329.37932 414.5483 313.19275 424.2177 L 305.71814 428.68254 L 310.62634 440.67473 C 321.15066 466.39523 344.61382 511.6141 359.51502 534.89153 C 362.75411 539.95137 373.883 554.15238 376.05798 556.0009 C 376.4894 556.36757 378.75104 559.47098 381.08337 562.89934 C 383.41571 566.3277 386.10386 569.9277 387.05798 570.89934 C 388.01211 571.87098 390.65321 575.36692 392.92517 578.66692 C 395.19712 581.96691 398.64091 586.46692 400.57947 588.66692 C 402.51803 590.86691 405.32976 594.61757 406.82752 597.0009 C 409.89286 601.87868 411.02008 602.06313 421.33337 599.39153 C 430.18595 597.09832 454.83402 590.30214 466.35291 586.97746 C 474.31081 584.68059 474.61415 584.44225 472.72986 581.95012 C 471.64196 580.51127 470.72288 578.43293 470.68689 577.33293 C 470.65089 576.23293 469.1306 573.92123 467.30994 572.19426 C 465.48927 570.46729 463.99939 568.54628 463.99939 567.92668 C 463.99939 566.61909 456.2785 554.87087 453.63806 552.16106 C 452.65273 551.14984 452.15134 549.53149 452.52283 548.5634 C 452.94019 547.47579 452.49712 547.07217 451.36462 547.50676 C 450.29923 547.91559 448.55254 546.63055 447.19275 544.4384 C 445.90614 542.36422 444.21176 540.06626 443.42712 539.33293 C 439.01308 535.20755 434.47296 527.5494 435.07556 525.24504 C 435.45291 523.80206 435.1917 523.00868 434.48377 523.44621 C 433.19987 524.2397 420.10231 510.98616 420.0365 508.82707 C 420.0168 508.18225 417.45004 505.18244 414.33337 502.1591 C 411.21672 499.13577 405.66606 492.65382 401.99939 487.75676 C 396.40068 480.27931 394.53436 478.71332 390.34119 477.97746 C 387.59503 477.49553 385.00888 476.55323 384.59509 475.88371 C 384.18131 475.21418 382.67864 474.66692 381.25525 474.66692 C 379.35775 474.66692 378.62649 473.6893 378.51502 471.0009 C 378.25709 464.77998 377.56188 459.64304 375.90369 451.68645 C 373.85699 441.86555 374.73399 436.87971 379.99353 428.41887 L 384.2533 421.56731 L 381.52283 417.7841 C 379.04237 414.34574 378.88618 412.90544 379.81384 402.0009 C 381.06668 387.274 380.37567 378.66692 377.93884 378.66692 z M 288.96228 442.0009 L 289.75916 448.122 C 291.53523 461.74552 300.44362 494.95597 306.35681 510.0009 C 309.81552 518.80089 312.49892 526.4509 312.32166 527.0009 C 312.1444 527.5509 312.48391 528.0009 313.07556 528.0009 C 313.66722 528.0009 316.19846 523.64959 318.70056 518.33293 C 321.20268 513.01627 324.31553 507.76692 325.61658 506.66692 C 327.84951 504.77904 327.68475 504.2208 322.70252 496.71965 C 319.79955 492.34901 316.73164 487.09964 315.88416 485.05364 C 315.03667 483.00762 313.81563 481.33293 313.17127 481.33293 C 312.52691 481.33293 311.99939 479.59705 311.99939 477.47551 C 311.99939 475.29754 311.14049 473.28842 310.02478 472.86028 C 308.12585 472.13159 296.59015 455.20884 294.98962 450.80364 C 294.56266 449.62846 293.03137 447.16627 291.58728 445.33293 L 288.96228 442.0009 z M 271.00525 605.51848 C 270.32515 605.56131 269.18929 606.24034 267.29822 607.47942 C 263.47356 609.98543 264.11844 612.0009 268.74548 612.0009 C 271.32821 612.0009 271.99939 611.31209 271.99939 608.66692 C 271.99939 606.45979 271.87967 605.46342 271.00525 605.51848 z " />
    <path
       id="path4"
       style="fill:#ffcc00"
       d="M 296.36072 220.16301 C 293.98479 220.06709 292.08138 221.89291 289.61462 225.95793 C 285.59415 232.5834 281.20783 233.89814 278.35681 229.33293 C 277.44086 227.86626 275.93666 226.66692 275.01306 226.66692 C 274.08947 226.66692 273.33337 226.08259 273.33337 225.36809 C 273.33337 223.33657 265.62847 219.77794 264.65173 221.35832 C 263.78037 222.76823 263.7024 277.09858 264.5697 278.51848 C 264.84359 278.96689 265.43857 285.33359 265.89197 292.66692 C 266.68014 305.41467 267.56443 314.09499 268.81189 321.33293 C 269.12786 323.16626 269.98752 329.46627 270.724 335.33293 C 274.8413 368.13037 279.23481 394.99482 282.09314 404.85832 C 283.8754 411.00852 285.33337 416.33087 285.33337 416.68645 C 285.33337 418.24646 289.44338 416.84313 307.15173 409.23723 C 325.86426 401.20003 347.37213 389.92655 363.99939 379.44035 C 368.76606 376.4342 373.86672 373.29527 375.33337 372.46575 C 377.39052 371.30225 377.92456 369.78304 377.66931 365.8134 C 376.95913 354.7689 358.61168 303.9841 348.47205 284.997 C 347.39429 282.97883 346.88304 280.72882 347.33533 279.997 C 347.78763 279.26517 347.61319 278.66692 346.94861 278.66692 C 346.28404 278.66692 343.85189 275.06113 341.54236 270.6552 C 335.58791 259.29578 334.18709 256.90124 332.599 255.36028 C 331.82815 254.6123 328.87064 250.9996 326.02673 247.33293 C 320.12802 239.72769 306.38351 225.79663 301.37244 222.3427 C 299.38221 220.97092 297.78628 220.22056 296.36072 220.16301 z M 359.10681 342.98723 C 361.042 343.01178 362.66821 343.74315 362.65759 344.95793 C 362.65259 345.53095 360.40258 347.49995 357.65759 349.33293 C 354.91261 351.1659 349.49931 355.21032 345.6283 358.32121 C 341.75729 361.43211 332.75728 366.72871 325.6283 370.09075 C 318.49932 373.45277 311.78669 376.66054 310.71033 377.21965 C 308.97895 378.11901 305.60072 382.82013 303.20447 387.66692 C 302.16359 389.77223 298.66736 389.85657 298.66736 387.77629 C 298.66736 382.27518 302.01098 368.24737 303.82556 366.13762 C 309.71141 359.29436 322.66713 353.14682 341.99939 348.02434 C 347.86605 346.46984 353.97699 344.54853 355.57752 343.75481 C 356.67393 343.21108 357.9457 342.9725 359.10681 342.98723 z " />
    <path
       id="path5"
       style="fill:#ffb380"
       d="M 327.54236 88.000901 C 327.22961 88.000901 326.56218 91.289665 326.05994 95.309495 C 325.55769 99.329325 323.68985 107.21161 321.90759 112.82707 C 320.12535 118.44254 318.66736 123.87302 318.66736 124.89543 C 318.66736 128.17884 311.84169 140.38071 304.25134 150.66692 C 300.19282 156.16691 294.59687 163.76309 291.8158 167.54778 C 289.03473 171.33246 282.76053 177.63247 277.87244 181.54778 C 272.98435 185.46308 266.87221 190.51558 264.29041 192.77629 L 259.59705 196.88762 L 267.39783 204.44426 C 271.68861 208.60021 276.04629 212.0009 277.08142 212.0009 C 278.11655 212.0009 282.04736 209.47209 285.8158 206.38176 C 298.12645 196.28634 320.08507 172.50262 328.46814 160.1845 C 331.14425 156.25221 333.33476 153.55221 333.33533 154.1845 C 333.33733 156.20422 338.50028 144.94728 341.37048 136.66692 C 345.39463 125.05757 348.15656 100.82318 345.87634 97.133714 C 345.23771 96.10039 328.9779 88.000901 327.54236 88.000901 z M 362.88611 94.250901 C 360.44042 94.227731 357.97854 94.957664 357.41345 95.871995 C 356.84836 96.786326 355.99578 103.00757 355.52087 109.69817 C 353.48255 138.41432 343.04612 161.50321 321.02869 186.0009 C 309.29169 199.06009 301.15087 211.28519 302.97595 213.11028 C 303.83244 213.96677 305.21193 214.66692 306.04041 214.66692 C 307.49733 214.66692 326.3714 232.72481 336.099 243.42473 C 343.84472 251.94466 351.23138 264.69304 367.72205 298.0009 C 374.4865 311.66374 378.71867 323.71822 383.37634 342.59465 C 386.0098 353.26743 388.63015 363.8009 389.19861 366.0009 C 390.19204 369.84561 390.33327 369.6746 392.86462 361.63762 C 394.3131 357.03874 395.83203 353.61089 396.23962 354.01848 C 396.64721 354.42608 396.70953 353.33371 396.37634 351.59075 C 396.04315 349.84778 396.5721 347.57628 397.55212 346.54387 C 398.53215 345.51146 399.43225 343.16627 399.55408 341.33293 C 399.87641 336.48259 405.45201 318.07352 406.74744 317.58098 C 407.35424 317.35027 407.53795 316.34679 407.15564 315.35051 C 406.77333 314.35424 407.45762 309.74214 408.67712 305.10246 C 411.0377 296.12164 411.62996 285.13258 410.02478 280.07512 C 409.37965 278.04249 409.66085 276.61221 410.85681 275.85442 C 412.26654 274.96118 412.15136 274.70236 410.33337 274.68645 C 408.63422 274.67158 407.99939 273.57977 407.99939 270.66692 C 407.99939 268.46692 407.44789 266.66692 406.77283 266.66692 C 406.09776 266.66692 405.12943 264.71626 404.62244 262.33293 C 403.22858 255.78047 398.74867 242.80929 395.29627 235.33293 C 385.88283 214.94769 382.45156 208.14771 381.38611 207.76262 C 380.73371 207.52682 380.0053 206.48315 379.76697 205.44426 C 379.52863 204.40537 378.26064 202.4346 376.95056 201.0634 C 375.64048 199.69221 374.88753 198.05447 375.27673 197.42473 C 375.66594 196.79499 375.04986 195.92165 373.90759 195.48332 C 372.76532 195.04499 372.20507 194.08121 372.6615 193.3427 C 373.11792 192.60418 372.92984 192.0009 372.24353 192.0009 C 370.94437 192.0009 367.32183 184.10053 363.38025 172.66692 C 362.11622 169.00025 360.30603 164.50025 359.35681 162.66692 C 358.4076 160.83359 357.20555 155.58424 356.68494 151.0009 C 355.92064 144.27218 356.10093 142.66692 357.61853 142.66692 C 360.63318 142.66692 364.95341 147.47254 366.70252 152.77239 C 368.87407 159.35227 380.78163 180.22834 387.724 189.6259 C 390.80947 193.80254 393.33338 197.51375 393.33337 197.87395 C 393.33337 198.23414 394.80972 200.12174 396.61462 202.06926 C 398.41952 204.01678 401.23142 208.39867 402.86267 211.80559 C 405.87477 218.09644 410.49804 225.37974 412.35486 226.75871 C 412.91677 227.17602 414.56308 234.07669 416.01306 242.0927 C 419.45506 261.12126 422.41401 274.44589 424.21033 279.0009 C 425.50607 282.28659 426.31772 282.66692 432.01892 282.66692 C 441.53561 282.66692 442.63723 288.7106 433.29627 289.67473 C 430.74984 289.93756 427.72387 290.71994 426.57166 291.41106 C 421.91098 294.20659 417.20757 311.68882 413.3197 340.66692 C 410.59297 360.99059 407.78339 371.39561 399.89392 390.39153 C 395.2962 401.46174 394.99204 402.86335 397.04041 403.54778 C 419.50761 411.05485 434.3567 418.67419 445.99939 428.66887 C 449.66606 431.81653 452.73511 434.3039 452.8197 434.19621 C 452.9043 434.08851 456.61354 428.56274 461.06189 421.91692 C 476.42483 398.96478 488.18022 371.6396 496.87634 338.66692 C 500.6213 324.46733 500.91708 320.22589 498.79627 311.03996 C 492.50729 283.8005 488.53251 268.3326 485.22791 258.22551 C 483.1107 251.75006 480.42785 241.37454 479.26502 235.16887 C 476.42528 220.01418 474.1079 213.79593 461.68689 188.0009 C 445.91689 155.25094 429.44005 133.69694 405.33337 114.2841 C 399.83338 109.85502 394.73272 105.57269 393.99939 104.76653 C 391.88325 102.44026 367.7912 94.297364 362.88611 94.250901 z M 151.92712 176.48918 C 150.47238 176.47688 149.47238 176.66075 149.09119 177.04192 C 147.8704 178.26271 146.65012 185.7062 144.45252 205.33293 C 141.70558 229.8656 144.12515 279.09256 148.49548 287.5966 C 149.32365 289.20811 152.65817 293.70812 155.90564 297.5966 L 161.80994 304.66692 L 175.90564 303.59856 C 183.65784 303.01068 198.05809 302.11068 207.90759 301.59856 L 225.8158 300.66692 L 226.87048 296.70989 C 227.45028 294.53344 228.15839 290.63213 228.4447 288.04192 C 229.12555 281.88247 232.02776 266.55257 232.99548 264.0009 C 233.41265 262.9009 233.63231 261.24694 233.48377 260.32707 C 233.33522 259.40719 234.08544 256.70719 235.14978 254.32707 C 236.21412 251.94695 237.43881 247.50268 237.87244 244.45012 C 238.30607 241.39756 239.01142 237.98508 239.4408 236.86614 C 240.05389 235.26844 238.98211 234.74121 234.4447 234.41496 C 231.14673 234.17784 228.78149 233.36718 228.93494 232.52629 C 229.10444 231.59747 225.13213 230.7667 218.18298 230.27629 C 212.12099 229.84849 206.29996 229.31155 205.24744 229.08293 C 203.92521 228.79573 202.30252 231.75753 199.99939 238.66692 C 193.16005 259.18494 192.18533 256.84524 192.05798 219.63762 C 191.99968 202.6032 191.71141 187.16626 191.41931 185.33293 C 191.12721 183.49959 190.8398 181.24959 190.77869 180.33293 C 190.71759 179.41626 189.58697 178.66692 188.26697 178.66692 C 186.94697 178.66692 185.29762 178.14584 184.60095 177.50871 C 183.90428 176.87158 179.13272 176.8159 173.99939 177.38567 C 168.63814 177.98075 161.61685 177.86445 157.49939 177.11223 C 155.29309 176.70916 153.38187 176.50148 151.92712 176.48918 z M 251.93884 206.05559 C 248.35693 206.15743 238.70438 214.37403 238.49744 217.82707 C 238.40384 219.38873 238.18555 222.00895 238.01306 223.64934 L 237.69861 226.63176 L 242.51697 224.10051 C 245.16638 222.70805 248.34863 221.24822 249.58923 220.85637 C 255.5263 218.98112 257.72592 208.12601 252.5697 206.14739 C 252.38947 206.07822 252.17764 206.0488 251.93884 206.05559 z M 249.74744 237.13762 C 249.54571 237.1636 249.30787 237.8079 248.98377 238.96575 C 248.42447 240.96379 247.58818 246.2151 247.12634 250.63371 C 246.6645 255.05233 245.82913 258.66692 245.26892 258.66692 C 244.70871 258.66692 244.54974 259.81156 244.91541 261.20989 C 245.28108 262.60821 244.62408 269.31272 243.45642 276.11028 C 241.23814 289.02402 240.57719 311.37483 242.38025 312.48918 C 242.95569 312.84482 243.56565 318.43033 243.73572 324.90129 C 244.10939 339.11827 245.71757 348.63969 250.05798 362.31535 C 253.73104 373.8883 254.10398 377.35149 251.66736 377.29387 C 250.75069 377.27217 247.60069 371.88958 244.66736 365.33293 C 241.73402 358.7763 238.98406 353.39368 238.55798 353.372 C 237.12013 353.2988 234.82118 359.28621 233.19666 367.33293 C 232.30836 371.73293 230.13688 378.47435 228.37048 382.3134 C 226.60409 386.15246 224.95191 391.5579 224.69861 394.32512 C 224.44532 397.09235 221.84684 405.3516 218.92517 412.67864 C 212.4757 428.85282 206.46739 448.01482 202.08142 466.39739 L 198.80603 480.1259 L 201.6615 487.72942 C 208.12986 504.95506 232.29413 539.24491 246.84705 551.84856 C 252.24803 556.52612 256.85353 560.83232 257.08142 561.41887 C 257.30931 562.00542 256.21991 563.16883 254.6615 564.00285 C 252.30217 565.26553 251.11821 564.97434 247.58142 562.26848 C 240.40315 556.77664 211.69039 528.87434 209.44861 525.21184 C 206.61029 520.57474 198.63732 511.58563 197.96228 512.26067 C 197.66539 512.55755 196.80589 517.87052 196.05212 524.06731 C 192.9461 549.60235 191.92786 555.86391 189.09314 566.87395 L 186.12244 578.41496 L 191.10291 585.91692 C 193.84233 590.04279 198.44109 595.04858 201.32361 597.04192 C 206.75524 600.79803 208.19276 604.83173 204.59119 606.21379 C 202.49124 607.01961 193.36076 601.33803 186.27087 594.8134 C 183.12734 591.92049 182.34378 591.69046 181.29041 593.35637 C 179.60374 596.02385 179.65442 597.77754 182.0365 619.33293 C 185.73896 652.83648 184.94532 649.74453 189.59119 648.81535 C 191.81955 648.36968 199.12366 644.60199 205.82166 640.44426 C 230.23629 625.28906 234.28399 622.57917 237.30798 619.36028 C 239.00217 617.5569 240.9 616.39871 241.52673 616.78606 C 242.15346 617.1734 242.66736 616.84007 242.66736 616.04387 C 242.66736 613.93566 250.79744 605.33293 252.79041 605.33293 C 253.72317 605.33293 254.83899 604.28424 255.26892 603.0009 C 256.4654 599.42938 267.76776 592.46625 276.3822 589.99504 C 285.26736 587.44617 290.49616 587.95873 305.29627 592.82317 C 314.82198 595.95404 335.99939 598.16477 335.99939 596.02825 C 335.99939 595.5146 338.55069 594.26231 341.66736 593.247 C 344.78402 592.23169 348.53272 590.29258 349.99939 588.93645 C 352.66017 586.47619 352.65969 586.46398 349.51892 583.90129 C 347.78768 582.4887 346.82818 581.33293 347.38611 581.33293 C 347.94405 581.33293 346.03307 579.6181 343.14002 577.52239 C 335.77545 572.18752 329.93914 566.55979 330.33337 565.17278 C 330.51671 564.52778 330.21736 564.11884 329.66736 564.26457 C 326.82548 565.01758 306.90947 541.80356 303.21619 533.43254 C 301.8979 530.44455 300.43124 528.0009 299.95642 528.0009 C 299.48159 528.0009 298.33955 525.44959 297.41736 522.33293 C 296.49518 519.21627 295.24832 515.70532 294.64783 514.5302 C 294.04734 513.35508 292.55358 508.25442 291.32752 503.19621 C 290.10145 498.138 287.08536 488.53056 284.62634 481.84465 C 280.00153 469.2701 273.97014 443.6212 271.80603 427.33293 C 271.12399 422.19961 270.02452 415.8996 269.36267 413.33293 C 268.18255 408.75647 265.27207 391.84231 262.71033 374.66692 C 261.25943 364.93927 260.92933 362.90399 257.30994 341.32317 C 255.89469 332.88473 254.4594 320.97427 254.12048 314.85442 C 253.78156 308.73456 253.16721 303.38943 252.7533 302.97551 C 252.33938 302.5616 251.99939 300.30588 251.99939 297.96379 C 251.99939 290.39552 250.34527 281.37324 249.099 282.14348 C 247.82523 282.93071 248.88805 261.1551 250.47205 254.0009 C 250.95914 251.8009 251.05219 246.70025 250.67908 242.66692 C 250.31872 238.77145 250.08366 237.09432 249.74744 237.13762 z M 502.97009 366.83879 C 502.09707 366.62117 501.43724 367.34732 500.93298 369.0009 C 498.08231 378.34888 491.5356 394.17936 487.2865 402.0009 C 484.49779 407.13423 480.80385 414.03294 479.07752 417.33293 C 472.74212 429.44342 469.73889 434.21078 462.28259 443.99114 C 458.09351 449.48593 454.66736 454.43594 454.66736 454.99114 C 454.66736 460.17662 479.31807 441.73604 492.849 426.42864 C 500.02721 418.30799 502.66736 417.01505 502.66736 421.622 C 502.66736 423.44357 500.37881 427.28207 497.24353 430.71965 C 494.26051 433.9903 490.8171 438.34136 489.59119 440.38762 C 488.36529 442.43389 482.40478 447.47416 476.34705 451.58879 C 470.28931 455.70344 465.33337 459.36627 465.33337 459.72746 C 465.33337 460.96759 486.2754 458.63518 497.46814 456.14934 C 503.62756 454.78136 511.94519 452.39717 515.95252 450.85051 C 523.06389 448.10583 526.76032 448.61242 524.64197 452.03996 C 524.09639 452.92273 519.07876 455.69208 513.49158 458.19426 C 507.90439 460.69644 502.13402 463.30251 500.66736 463.98528 C 499.20069 464.66805 491.10068 466.53525 482.66736 468.13567 C 474.23403 469.73609 466.82717 471.49654 466.20837 472.04778 C 464.43203 473.63014 483.03982 476.3048 501.98572 477.19035 C 516.52357 477.86988 519.36997 478.34946 519.71814 480.17278 C 520.60378 484.81079 493.84738 485.05372 464.33337 480.67668 C 459.15667 479.90896 458.66736 480.0854 458.66736 482.71575 L 458.66736 485.59465 L 454.33337 482.70989 C 451.95005 481.12271 447.9602 478.91708 445.46619 477.8095 C 441.26961 475.9458 440.67127 475.98844 437.4447 478.37395 C 435.33688 479.93234 430.93534 481.20164 426.31384 481.58489 C 422.10957 481.93354 418.33757 482.55139 417.93103 482.95793 C 417.5245 483.36446 419.03422 486.31472 421.2865 489.51457 C 423.53877 492.71444 427.4836 498.33425 430.05212 502.0009 C 432.62066 505.66757 438.55995 514.06692 443.25134 520.66692 C 458.87383 542.64506 476.97525 569.85217 484.59509 582.80754 L 492.1283 595.61614 L 510.82361 589.23332 C 521.1055 585.72357 530.9554 581.90986 532.71228 580.75871 C 534.46916 579.60756 536.52737 578.66692 537.2865 578.66692 C 540.29248 578.66692 538.37638 574.2429 532.7865 568.27629 C 518.37189 552.89021 515.36472 550.02699 514.05798 550.44426 C 513.29248 550.6887 513.09048 550.46451 513.60877 549.94621 C 514.12705 549.42793 513.0764 547.07192 511.27478 544.70989 C 507.61674 539.91395 507.00838 536.0009 509.91931 536.0009 C 511.85532 536.0009 519.07189 541.84073 528.40173 550.95793 C 531.1897 553.68236 536.74466 558.70788 540.74548 562.1259 C 547.91889 568.25433 548.11599 568.32812 555.00916 567.42668 C 561.7225 566.54876 580.31654 559.41048 588.66736 554.50481 C 590.86736 553.21242 596.97929 549.72616 602.24939 546.75676 C 611.21252 541.70656 622.44118 531.67588 622.50134 528.66692 C 622.51604 527.93359 619.45628 525.70805 615.70056 523.7216 C 602.60136 516.79326 602.44723 513.91859 615.33338 516.86809 C 633.46671 521.01861 633.70658 520.99318 640.0072 514.29778 C 646.2515 507.66222 653.23811 493.52437 653.29627 487.4052 C 653.34657 482.10975 647.39575 473.86151 640.76111 470.03215 C 637.7763 468.30939 629.63401 464.99335 622.66736 462.66301 C 615.7007 460.33267 606.70069 456.92164 602.66736 455.08293 C 590.52257 449.54639 570.49624 437.2706 564.05408 431.41301 C 560.72463 428.38568 555.47683 424.21457 552.39197 422.14543 C 542.39216 415.43816 516.5459 386.3973 506.28064 370.33293 C 504.92824 368.21652 503.84311 367.05642 502.97009 366.83879 z M 333.33337 517.38567 C 332.61484 517.43987 326.26794 530.42017 324.14197 536.1845 C 322.94571 539.42802 323.97291 541.04554 337.2572 556.85246 C 352.87466 575.43561 359.39107 582.12224 364.224 584.52239 C 371.71249 588.24135 367.09118 594.36618 351.33337 601.60442 C 345.37908 604.33947 342.67141 604.66371 325.99939 604.64543 C 315.15168 604.63353 305.65788 603.9806 303.33337 603.08684 C 301.13338 602.24095 296.84807 601.20445 293.80994 600.78215 C 287.26064 599.87179 287.29209 599.80333 286.02478 618.0009 C 285.56515 624.60089 284.92378 631.94961 284.60095 634.33293 C 283.91289 639.41268 280.09621 639.0636 317.33337 637.33489 C 331.63336 636.67102 344.83402 635.85175 346.66736 635.51457 C 348.50069 635.1774 355.6921 634.49295 362.64978 633.99309 C 380.53545 632.70811 403.99939 627.89968 403.99939 625.52043 C 403.99939 624.9593 402.80004 622.01702 401.33337 618.98137 C 399.86672 615.94572 398.66736 612.97663 398.66736 612.38371 C 398.66736 610.85754 392.13792 604.0009 390.68494 604.0009 C 390.0209 604.0009 387.33507 599.42523 384.71619 593.83293 C 382.09729 588.24064 374.5815 576.38998 368.01502 567.49895 C 350.23032 543.41842 342.0549 531.67639 337.81189 524.122 C 335.71553 520.38956 333.70004 517.35804 333.33337 517.38567 z " />
    <path
       id="path6"
       style="fill:#fff6d5"
       d="M 204.58142 63.473558 C 203.95756 63.47241 203.26551 63.482892 202.49353 63.500901 C 189.16488 63.811849 187.8356 63.987129 188.66736 65.332933 C 189.74692 67.079706 187.58939 67.057701 185.83533 65.303636 C 183.16092 62.629233 170.5022 69.899397 173.01111 72.66887 C 173.55475 73.268969 173.3368 73.38246 172.52673 72.920823 C 171.71667 72.459187 169.66338 73.563218 167.96228 75.373948 C 166.26119 77.184678 165.29629 78.666917 165.8197 78.666917 C 166.34311 78.666917 165.9977 79.503264 165.05212 80.526292 C 164.10655 81.54932 162.99296 82.182358 162.57752 81.932542 C 161.47436 81.26919 156.92736 89.37223 157.87244 90.317308 C 158.31216 90.757024 157.73627 92.149868 156.59314 93.413011 C 155.45001 94.676154 154.35302 97.240631 154.15369 99.110276 C 153.95435 100.97992 153.16135 103.29476 152.39197 104.25481 C 151.01784 105.96948 149.49055 110.03967 149.23572 112.66692 C 149.16462 113.40025 148.50498 114.72378 147.77087 115.60832 C 147.02679 116.50489 146.92584 117.98062 147.54236 118.94231 C 148.15061 119.8911 148.73945 121.86626 148.849 123.33293 C 149.28028 129.10696 151.02514 138.03536 151.84705 138.66692 C 152.32423 139.03359 152.82974 142.46708 152.97009 146.29778 C 153.11872 150.35459 154.22228 154.7869 155.61267 156.91301 C 157.23666 159.39635 157.39922 160.19424 156.12244 159.40715 C 154.63863 158.49242 154.42609 158.92114 155.10486 161.45793 C 155.57703 163.22261 155.9718 165.45416 155.98181 166.41692 C 155.99181 167.37968 157.05005 167.99523 158.33337 167.7841 C 159.61671 167.57297 161.40264 167.86233 162.30212 168.42668 C 163.81168 169.37381 165.79443 169.78878 176.55603 171.41301 C 178.69481 171.73582 180.72872 172.28297 181.07556 172.62981 C 182.51349 174.06774 184.04549 171.57861 183.25525 169.08879 C 182.29781 166.07216 181.69023 162.30462 180.63806 152.8759 C 179.92616 146.49648 181.309 139.95825 184.80212 133.18645 C 185.78931 131.27268 186.2131 129.32398 185.74353 128.85442 C 185.27397 128.38485 185.68953 128.0009 186.66736 128.0009 C 187.64513 128.0009 188.04806 127.60426 187.56384 127.12004 C 187.07961 126.63581 187.89036 125.39485 189.36462 124.36223 C 190.83889 123.32961 191.67457 121.88545 191.22205 121.15325 C 190.76201 120.40889 191.47261 120.0088 192.83533 120.24504 C 194.1758 120.47742 195.28762 119.89548 195.30408 118.95207 C 195.33948 116.92528 198.74399 114.55844 200.26892 115.5009 C 200.85394 115.86246 201.33338 115.52168 201.33337 114.74504 C 201.33337 113.96843 202.38402 113.32217 203.66736 113.3095 C 206.60882 113.2805 212.49147 107.20792 211.35681 105.372 C 209.87044 102.96701 202.48606 103.89169 195.03845 107.41496 C 191.06856 109.29303 187.11105 110.57201 186.24353 110.25676 C 185.376 109.94151 186.29873 108.91613 188.29236 107.97942 C 190.28604 107.0427 191.67886 105.89135 191.38806 105.42082 C 191.09726 104.95029 192.27776 104.44726 194.01306 104.30364 C 195.74835 104.16002 199.45618 103.26358 202.25134 102.3095 C 205.04651 101.3554 209.1836 100.65566 211.4447 100.75481 C 214.09681 100.87111 215.55603 100.29531 215.55603 99.133714 C 215.55603 98.143374 215.02097 97.332933 214.36658 97.332933 C 213.71218 97.332933 213.5279 96.763847 213.95837 96.067308 C 215.28581 93.919468 209.96605 92.065998 204.85486 92.895433 C 202.18509 93.328675 199.99939 94.121849 199.99939 94.659104 C 199.99939 95.19636 198.64939 95.532866 196.99939 95.407151 C 195.34939 95.281438 193.40069 95.576811 192.66736 96.063401 C 190.57957 97.448717 185.32904 98.513772 185.3783 97.541917 C 185.4027 97.060571 186.55418 95.31093 187.93689 93.653245 C 190.58366 90.480108 200.04829 88.000901 209.51502 88.000901 C 213.54271 88.000901 214.66736 87.487468 214.66736 85.653245 C 214.66736 80.61987 205.60722 77.395195 196.66736 79.245042 C 195.20069 79.548526 193.45091 79.841278 192.77869 79.897386 C 192.10647 79.953496 191.95045 80.395328 192.43298 80.877854 C 192.9155 81.360381 192.65297 82.547797 191.849 83.516526 C 190.78903 84.793705 189.69286 84.905261 187.86072 83.924729 C 185.4955 82.658901 185.46996 82.362499 187.48572 79.286058 C 188.67006 77.478527 190.63766 76.000901 191.85681 76.000901 C 193.07597 76.000901 195.2874 75.149343 196.77087 74.110276 C 198.52454 72.881957 201.88255 72.387841 206.37048 72.698167 C 210.56586 72.988264 213.63943 72.584314 214.20642 71.666917 C 214.71949 70.836753 214.39432 69.90989 213.48377 69.60637 C 212.5732 69.302849 211.33785 67.767351 210.73962 66.194261 C 209.91867 64.035462 208.94845 63.481592 204.58142 63.473558 z M 274.92322 97.709886 C 274.6943 97.7272 274.47045 97.762316 274.25134 97.817308 C 272.64222 98.221174 269.37662 101.08636 266.99548 104.1845 C 264.61436 107.28262 262.66736 109.48686 262.66736 109.08293 C 262.66736 108.21238 250.56507 119.23893 235.64978 133.70012 C 229.76863 139.40221 225.24773 144.35861 225.60291 144.71379 C 225.95809 145.06896 227.87272 143.85324 229.85877 142.01262 C 231.84482 140.17201 234.22056 138.66692 235.13611 138.66692 C 236.05166 138.66692 237.51978 137.94731 238.39978 137.06731 C 239.64422 135.82287 239.99939 135.82287 239.99939 137.06731 C 239.99939 137.94731 239.36389 138.66692 238.58728 138.66692 C 237.81066 138.66692 237.60309 139.35935 238.12634 140.20598 C 238.66866 141.08347 238.49845 141.38531 237.72791 140.9091 C 236.60606 140.21576 233.4476 146.11153 232.14392 151.33293 C 231.65766 153.28042 228.19442 154.94372 226.63416 153.97942 C 225.89467 153.52239 225.69359 152.49635 226.18689 151.69817 C 226.77049 150.75388 226.09447 150.50576 224.2533 150.98723 C 222.69703 151.3942 221.55402 151.33897 221.71228 150.86418 C 221.87054 150.38939 221.40069 150.0009 220.66736 150.0009 C 219.93402 150.0009 219.36676 151.3509 219.40759 153.0009 C 219.44839 154.6509 218.99843 156.0009 218.40759 156.0009 C 217.81676 156.0009 217.33337 157.23509 217.33337 158.74504 C 217.33337 160.25499 217.84961 161.17166 218.47986 160.78215 C 219.11011 160.39263 219.43859 161.70779 219.21033 163.70403 C 218.84239 166.92184 220.26236 174.24548 222.37048 180.0009 C 222.7734 181.1009 223.1548 182.47103 223.21814 183.04778 C 223.28144 183.62453 224.19861 184.63107 225.25525 185.2841 C 227.52025 186.68395 232.79354 184.27806 236.54236 180.13567 C 237.93762 178.59393 239.504 177.33293 240.02283 177.33293 C 241.12641 177.33293 240.65061 183.20129 239.38025 185.25676 C 238.90113 186.03199 239.41605 186.66692 240.52478 186.66692 C 244.58216 186.66692 249.41914 183.45762 250.22986 180.22746 C 251.02099 177.07535 251.14979 177.03422 252.87634 179.39543 C 254.42523 181.51367 254.39632 182.04575 252.67908 183.00676 C 251.57181 183.62643 250.66736 185.03859 250.66736 186.14543 C 250.66736 187.25227 250.14643 187.83691 249.51111 187.44426 C 248.87578 187.05161 247.33298 187.86013 246.08142 189.24309 C 243.93268 191.61742 243.94049 191.83803 246.23572 193.17278 C 249.3641 194.99202 248.96417 195.03576 253.46033 192.37981 C 255.59015 191.1217 257.33337 189.62104 257.33337 189.04582 C 257.33337 188.4706 258.19878 188.0009 259.2572 188.0009 C 260.31562 188.0009 262.11562 186.6659 263.2572 185.03606 C 264.39878 183.40622 265.33337 182.63966 265.33337 183.33293 C 265.33337 184.0262 267.09855 182.6612 269.2572 180.29778 C 271.41586 177.93435 273.66586 175.98177 274.2572 175.95989 C 274.84854 175.93799 277.88567 173.68799 281.00525 170.95989 C 285.82048 166.7489 287.04605 164.57834 289.11853 156.59075 C 290.4612 151.41594 291.49158 145.61285 291.40759 143.69426 C 291.32359 141.77566 291.72257 140.49521 292.29431 140.84856 C 292.86605 141.20192 293.33337 140.94902 293.33337 140.28606 C 293.33337 138.68557 288.01253 133.90628 287.96033 135.45989 C 287.93803 136.12355 287.34128 135.67934 286.63611 134.4716 C 285.76704 132.98316 285.98733 130.48037 287.3197 126.70403 C 289.2198 121.31859 289.28005 118.89395 287.61267 114.66692 C 287.17877 113.56692 286.60124 111.46757 286.33142 110.0009 C 286.0616 108.53424 285.25152 107.44253 284.53064 107.57512 C 283.80976 107.7077 283.12671 106.58002 283.01306 105.07121 C 282.7282 101.28965 278.35707 97.45017 274.92322 97.709886 z M 397.30994 413.48918 C 396.82199 413.5056 396.32503 413.80807 395.73377 414.39934 C 394.48933 415.64378 394.56209 416.00639 396.0658 416.02629 C 397.12913 416.04039 395.60635 418.13971 392.68103 420.69231 C 389.75571 423.2449 387.82889 425.33293 388.39978 425.33293 C 389.48565 425.33293 387.73313 427.71224 383.49353 431.99114 C 380.79496 434.71471 379.14702 445.92135 381.0658 448.49895 C 381.68069 449.32496 382.2933 451.74029 382.42712 453.86614 C 382.56094 455.99199 383.26348 458.44625 383.98962 459.32121 C 384.71577 460.19616 384.9295 461.29345 384.46423 461.75871 C 383.99897 462.22398 384.60498 462.98188 385.80994 463.44426 C 387.0149 463.90665 387.99939 465.05122 387.99939 465.98723 C 387.99939 467.58719 391.90359 469.27466 395.69861 469.31535 C 397.6447 469.33625 397.20531 462.88361 394.86072 457.0009 C 393.12116 452.63625 394.21735 445.79099 396.8158 444.79387 C 398.09627 444.30251 398.71255 445.19955 398.81775 447.70793 C 399.14709 455.56031 399.94678 459.1437 401.60291 460.19426 C 402.5544 460.79783 402.80911 461.30217 402.16931 461.3134 C 401.52952 461.3246 401.75444 462.23293 402.66736 463.33293 C 403.58028 464.43293 403.93282 465.33293 403.45056 465.33293 C 401.60881 465.33293 405.63496 470.86336 408.15564 471.79582 C 413.23675 473.67544 415.83974 473.29713 415.349 470.74895 C 415.09432 469.42645 413.34281 465.29772 411.45642 461.57512 C 409.23154 457.18453 408.52161 454.50213 409.43689 453.93645 C 410.21293 453.45683 410.55406 452.29674 410.1947 451.36028 C 409.51191 449.58095 411.68907 446.66692 413.70056 446.66692 C 414.34249 446.66692 414.75932 448.31627 414.62634 450.33293 C 414.49337 452.3496 414.52336 454.4509 414.69275 455.0009 C 414.86212 455.5509 415.15005 456.5996 415.33337 457.33293 C 415.51671 458.06627 415.81307 459.11692 415.99158 459.66692 C 416.17009 460.21692 416.23951 461.13362 416.14587 461.70403 C 416.05218 462.27443 416.87728 463.08757 417.97986 463.51067 C 419.08245 463.93377 419.65051 464.82164 419.24158 465.48332 C 418.83264 466.14499 419.43134 467.04499 420.57361 467.48332 C 421.71588 467.92164 422.34451 468.77594 421.97009 469.38176 C 420.29766 472.08783 428.01469 473.74255 430.38611 471.18645 C 431.49161 469.99486 431.58176 469.33293 430.64002 469.33293 C 429.83449 469.33293 429.54617 468.73423 429.99939 468.0009 C 430.74048 466.80179 428.99107 466.08908 426.33337 466.50871 C 425.78338 466.59561 425.33337 466.06627 425.33337 465.33293 C 425.33337 464.5996 426.08272 463.98125 426.99939 463.95793 C 428.02441 463.93183 427.77715 463.23913 426.35486 462.1591 C 425.08292 461.19326 424.43206 460.01159 424.90955 459.5341 C 425.38704 459.05661 425.20819 458.66692 424.51111 458.66692 C 422.61568 458.66692 423.06889 450.31161 424.99939 449.66692 C 425.91606 449.36079 426.66736 450.08157 426.66736 451.26848 C 426.66736 452.4554 427.66415 454.94855 428.8822 456.80754 C 430.10026 458.66653 432.04896 462.04361 433.21423 464.3134 C 434.3795 466.5832 436.71457 468.93385 438.40173 469.53606 C 440.34585 470.22997 441.17086 470.14898 440.65564 469.31535 C 440.20853 468.59191 440.77799 468.0009 441.92127 468.0009 C 444.52748 468.0009 444.58871 466.11171 442.06384 463.58684 C 440.99876 462.52176 440.49855 461.27909 440.95252 460.82512 C 441.40649 460.37115 441.20561 460.0009 440.5072 460.0009 C 439.80878 460.0009 439.23767 458.7996 439.23767 457.33293 C 439.23767 455.86627 440.00966 454.66692 440.95252 454.66692 C 441.89537 454.66692 442.66736 454.03142 442.66736 453.25481 C 442.66736 452.47819 443.23645 452.19542 443.93298 452.6259 C 445.61141 453.66323 447.76467 449.35732 447.23377 446.02434 C 447.00226 444.57099 446.17567 443.17034 445.39783 442.91106 C 444.62 442.65178 444.32315 441.89035 444.73767 441.21965 C 445.15218 440.54895 444.85608 440.0009 444.07947 440.0009 C 443.30286 440.0009 442.81606 439.52789 442.99939 438.95012 C 443.43491 437.57757 436.5343 430.66692 434.72791 430.66692 C 433.96125 430.66692 433.33338 430.14964 433.33337 429.51848 C 433.33337 428.88732 429.73337 426.45349 425.33337 424.10832 C 420.93338 421.76315 417.33337 420.19346 417.33337 420.62004 C 417.33337 421.04661 415.83272 420.41113 413.99939 419.20989 C 412.16606 418.00865 410.66736 417.40994 410.66736 417.87785 C 410.66736 418.34576 409.17081 417.74922 407.34314 416.55168 C 405.51547 415.35415 403.18952 414.69294 402.17322 415.08293 C 401.15692 415.47292 399.65216 415.11855 398.82947 414.29582 C 398.27671 413.74306 397.79788 413.47276 397.30994 413.48918 z " />
    <path
       id="path7"
       style="fill:#008080"
       d="M 229.30408 38.666917 C 222.83751 38.666917 216.82744 42.014449 207.33337 50.907151 C 205.13338 52.967802 202.88337 54.657665 202.33337 54.661058 C 201.78338 54.664458 201.33337 55.310504 201.33337 56.096604 C 201.33337 57.035646 203.96236 57.264871 208.99939 56.766526 C 213.21606 56.349346 215.91606 56.356627 214.99939 56.782151 C 212.48119 57.951117 212.99479 61.877123 216.19861 65.95012 C 217.84519 68.043404 219.01468 71.36442 218.94666 73.756761 C 218.88156 76.046889 219.4598 78.682019 220.23181 79.612229 C 221.00935 80.549107 221.26386 83.28567 220.80212 85.746995 C 220.00299 90.006761 220.63351 92.000901 222.77869 92.000901 C 223.32869 92.000901 223.97761 91.443996 224.22205 90.764573 C 224.4665 90.085152 227.4132 86.635799 230.76892 83.098558 C 238.98493 74.438121 247.7199 61.413163 250.86658 53.131761 C 252.28671 49.394307 253.2728 46.170321 253.05798 45.967698 C 250.68886 43.733102 234.20454 38.666917 229.30408 38.666917 z M 281.15173 43.094651 C 277.437 43.011169 272.00462 43.628543 267.77673 44.817308 C 266.5542 45.161052 261.76361 51.868401 257.13025 59.721604 C 246.75785 77.302075 237.17463 91.911675 230.33728 100.56926 C 225.41964 106.79607 216.81942 112.74098 202.08337 120.10051 C 198.73717 121.77169 195.99939 124.01311 195.99939 125.08098 C 195.99939 126.14885 193.85758 131.22523 191.23962 136.36223 C 186.66368 145.34124 186.09394 149.37272 187.9408 159.66692 C 188.13374 160.74236 190.59513 159.69406 192.08142 157.90325 C 193.03882 156.74966 195.96179 154.70809 198.57752 153.36614 C 202.82262 151.18825 211.91609 143.88215 223.23181 133.5595 C 225.37565 131.6038 229.87566 128.05111 233.23181 125.66496 C 236.58798 123.27883 239.33337 120.57801 239.33337 119.66301 C 239.33337 118.74801 240.08272 117.92459 240.99939 117.83293 C 241.91606 117.74123 243.24859 117.59257 243.96033 117.5009 C 244.67207 117.4092 250.05752 111.82452 255.92712 105.09075 C 266.18374 93.324041 269.77924 87.229673 281.74548 61.332933 C 285.52092 53.162317 286.90223 46.537064 285.35291 44.030198 C 284.99228 43.446702 283.38057 43.144741 281.15173 43.094651 z " />
  </g>
</svg>
